<svg width="103" height="111" viewBox="0 0 103 111" fill="none" xmlns="http://www.w3.org/2000/svg">
<path d="M62.2636 63.6567C62.2636 65.8076 60.4873 67.5578 58.3038 67.5578L46.5188 67.5578V67.5578C46.4325 67.5578 46.3626 67.4879 46.3626 67.4016V59.3033C46.3626 59.217 46.4325 59.1471 46.5188 59.1471V59.1471L57.3885 59.1471H58.3038C60.4873 59.1471 62.2636 60.8972 62.2636 63.0488V63.6567ZM46.3626 44.6303C46.3626 44.5976 46.3891 44.5711 46.4218 44.5711H57.3885C59.3468 44.5711 60.94 46.1421 60.94 48.0718V48.6464C60.94 50.5768 59.3468 52.1467 57.3885 52.1467H46.4218C46.3891 52.1467 46.3626 52.1202 46.3626 52.0875V52.0875V52.0283V51.9099V51.6732V51.1997V50.2528V48.3589V46.465V45.518V45.0446V44.8078V44.6895V44.6303V44.6303ZM64.6072 55.0238C64.5091 54.9343 68.0427 51.0621 68.0427 48.6464V48.0718C68.0427 43.1487 64.5843 39.0147 59.936 37.8876C58.8846 37.6326 58.0328 36.7587 58.0328 35.6768V35.6768C58.0328 34.5478 57.1176 33.6327 55.9887 33.6327H52.8986C51.811 33.6327 50.9293 34.5143 50.9293 35.602V35.602C50.9293 36.6896 50.0476 37.5713 48.96 37.5713H48.018L40.915 37.5713L39.2584 37.5713V37.5713C37.3255 37.5713 35.7347 39.1382 35.7347 41.0712V42.8092C35.7347 43.7823 36.5235 44.5711 37.4966 44.5711V44.5711C38.4696 44.5711 39.2584 45.3599 39.2584 46.333V52.1467V59.1471V65.7959C39.2584 66.769 38.4696 67.5578 37.4966 67.5578V67.5578C36.5235 67.5578 35.7347 68.3466 35.7347 69.3197V71.0583C35.7347 72.9915 37.3252 74.5587 39.2584 74.5587V74.5587H40.915L48.018 74.5587H49.3209C50.2092 74.5587 50.9293 75.2788 50.9293 76.1671V76.1671C50.9293 77.0554 51.6494 77.7755 52.5377 77.7755H56.4244C57.3127 77.7755 58.0328 77.0554 58.0328 76.1671V74.8297C58.0328 74.68 58.1541 74.5587 58.3038 74.5587V74.5587C64.4047 74.5587 69.3673 69.6675 69.3673 63.6567V63.0488C69.3673 59.8913 64.7054 55.1134 64.6072 55.0238Z" fill="#11BFBA"/>
<path d="M42.3513 110.071H0V0H41.9214C53.2437 0 63.2284 0.847981 71.4694 5.2551C79.7462 9.62639 88.011 14.8815 92.4898 23.1225C97.0044 31.3276 103 43.1874 103 54.6531C103 66.1187 100.832 81.466 91.4388 87.2347C87.2347 94.5918 79.6327 99.1065 71.4276 103.514C63.2225 107.885 53.5304 110.071 42.3513 110.071ZM31.5306 84.5952L35.7347 87.2347L43.0918 89.3367C48.538 89.3367 53.9723 91.0924 57.8061 89.3367C62.0102 89.3367 72.616 86.3688 74.6224 82.0692C83.0724 79.9671 87.2347 60.2187 87.2347 52.551C86.1837 44.1429 85.1088 42.1364 83.0306 37.8367C80.9883 33.5371 72.2935 23.8271 68.3163 22.0714C65.6709 21.491 53.602 18.4478 46.2449 19.9694L37.8367 22.0714L34.6837 24.1735L29.4286 27.3265L24.1735 32.5816L19.9694 37.8367L16.8163 44.1429L15.7653 47.2959V51.5V56.7551V62.0102L16.8163 66.2143L18.9184 69.3674L21.0204 72.5204L23.1224 75.6735L26.2755 79.8776L28.3776 82.0692L31.5306 84.5952Z" fill="#11BFBA"/>
</svg>
