<?xml version="1.0" encoding="utf-8"?>
<!-- Generator: Adobe Illustrator 26.0.2, SVG Export Plug-In . SVG Version: 6.00 Build 0)  -->
<svg version="1.1" id="Layer_1" xmlns="http://www.w3.org/2000/svg" xmlns:xlink="http://www.w3.org/1999/xlink" x="0px" y="0px"
	 viewBox="0 0 381.7 167.7" style="enable-background:new 0 0 381.7 167.7;" xml:space="preserve">
<style type="text/css">
	.st0{fill:#0CBEB8;}
	.st1{fill:#304360;}
	.st2{fill:#324562;}
	.st3{fill:#10BFBA;}
	.st4{fill:#0FBEB9;}
	.st5{fill:#0EBFB9;}
	.st6{fill:#11BFBA;}
	.st7{fill:#374965;}
	.st8{fill:#314461;}
	.st9{fill:#2D415E;}
	.st10{fill:#11BFB9;}
	.st11{fill:#3AC3BE;}
	.st12{opacity:0;}
	.st13{fill:#29C0BC;}
</style>
<path class="st0" d="M381.7,116.8c-11.6,0.1-23.2,0.2-34.8,0.4c-2.4,0-3.1-1-3.1-3.3c0.1-15.3,0-30.5,0-45.8c0-0.5-0.2-1.2,0.1-1.5
	c3.8-3.3,8.4-1.1,12.6-1.6c2.8-0.3,2.5,2,2.5,3.8c0,10.3,0.2,20.6-0.1,30.9c-0.1,4.2,1.5,4.8,5.2,4.9c5.9,0.2,11.9-1.5,17.6,1.1
	L381.7,116.8z"/>
<path class="st1" d="M321.8,167.7c-1-2-3.3-1.9-5-3c-8.2-5.3-11.1-18.4-6.1-28.2c4.3-8.5,14.5-12.2,23.9-8.6c2.9,1,5.3,2.9,7,5.4
	c1.1,1.8,3.7,4.5,1.4,5.9c-1.9,1.2-5.5,1.9-7.7-1.8c-2.3-4-7.5-5.2-11.8-3.5c-5.1,2-7.5,7.8-6.8,16.2c0.4,5.5,3.5,9.3,8.5,10.3
	c4,1,8.2-0.7,10.4-4.2c0.8-1.1,1.6-2.3,0.9-3.7s-2.1-0.5-3.1-0.7c-1.6-0.3-3.7,0.8-4.6-0.8c-0.7-1.1-0.5-2.9-0.3-4.3
	c0.2-1.6,1.8-1.1,2.8-1.2c12.8-0.9,12.8-0.9,12.8,11.8c0,1.8,0.1,3.7,0,5.5c0,1.2,0.5,3-1.4,3.2c-1.5,0.2-3.6,0.9-4-1.6
	s-1.6-2.1-2.8-0.7c-1.9,2.2-4.9,2.4-7.2,4L321.8,167.7z"/>
<path class="st1" d="M381.7,165.7c-9,1-18,0.2-26.9,0.5c-2.2,0.1-2.3-1.3-2.3-3c0-10.8,0.1-21.6,0-32.4c0-2.4,0.8-3.1,3.1-3.1
	c7.2,0.1,14.3,0.1,21.5,0c2.2,0,3.3,0.5,3.2,3c-0.1,2.3-0.4,3.8-3.3,3.7c-4.7-0.2-9.3,0.1-14-0.1c-3.8-0.2-3.1,2.3-3.3,4.6
	c-0.2,2.6,0.3,4.1,3.4,3.9c4-0.2,8,0.1,12-0.1c2.7-0.1,3.3,1,3.3,3.5s-0.8,3.5-3.4,3.4c-3.8-0.2-7.7,0.2-11.5-0.1s-4.1,1.7-3.8,4.5
	c0.3,2.5-1.4,6,3.7,5.7c4.3-0.3,8.7,0,13-0.1c1.8,0,3.6-0.2,5.2,1.1L381.7,165.7z"/>
<path class="st2" d="M165.8,167.7c-11.8-8-15.3-16.2-11.9-28.2c2-7,6.6-11.6,14-12.4c6.8-0.8,13,0.9,16.8,7.3c1,1.7,3.6,4.4,0.8,5.8
	c-2,0.9-5.9,2.1-7.6-2c-1.1-2.7-3.4-4-6.2-4.3c-6.3-0.7-10.4,4.1-10.8,12.6s3.7,14.4,9.7,14.2c2.8-0.1,5.7-1.1,6.6-3.8
	c1.3-4,4-3.6,7.1-3.6c2,0,2.5,0.5,1.8,2.7c-1.9,6.4-6.8,9.4-12.3,11.8L165.8,167.7z"/>
<path class="st3" d="M54.2,140.1l-1.3-0.5c0-1.6,0-3.2,0-4.9c3.7-1.4,4.3-5.6,7-8l0.9-1.2c0.9-2.2,2.2-4.2,3.9-5.8l1-1.4
	c0-0.7,0.4-1.3,1-1.5l1-1.5c-0.1-0.2,0.1-0.5,0.3-0.6c0,0,0,0,0,0l0.8-1l13.2-20c1.4-1.7,0.8-3.8,0.8-5.7
	c-0.3-7.4,0.9-14.8-0.5-22.2c6.4-2.1,13-0.3,19.5-1c0.6,1,1.3,1,2,0.1c5.6,0.3,11.2,0.6,16,3.9c0.4,0.8,1.2,1.2,2,1.1l1.1,0.8
	l1.4,1.1l2.4,0.1c2.2-0.1,2.1-1.7,2-3.2c3.3-6.5,6.9-12.7,11-18.7c0.3-0.5,0.7-1,1-1.5c-0.1-0.2-0.1-0.4,0.1-0.5c0,0,0.1,0,0.1,0
	l0.8-1.3l2.7-4.8c0.2-0.2,0.3-0.4,0.4-0.6l0.1-0.2l0.8-1.2c1.6-2.9,3.1-5.8,4.8-8.6c1.5-2.4,1.5-4-1.3-5.5c-2.6-1.4-5-3.2-7.5-4.8
	v-2.6c1.3-1.2,2.9-2,4.6-2.4l1.4-0.8c0.1-0.2,0.3-0.3,0.5-0.2c0,0,0,0,0,0l1.3-1c4.5-2.9,9.1-5.5,14-7.7c0.5,0.5,0.8,0.1,0.9-0.4
	l1.7-1l1.3-0.8c0.1-0.2,0.4-0.4,0.6-0.3l1.4-0.8l3.1-1.8c0.8,0.9,1.8,0.7,2.8,0.7c0,0.7,0,1.4,0,2c-2,4.3-0.8,8.8-0.7,13.1
	c0.1,2.6-2.8,5.3,0,7.9l-0.2,9.9c-1.1,1.6-2,3.6-4.5,3.1c-2-0.6-3.8-1.7-5.4-3.1l-1.4-0.9c-2.7-0.8-3.3,1.4-4.3,3
	c-1.4,2-2.8,4-4.1,6c-0.3,0.5-0.7,1-1.1,1.5l0,0.3l-0.2,0.1l-0.8,1.3c-1.2,1.9-2.3,3.9-3.5,5.8c-0.3,0.2-0.5,0.5-0.6,0.8l-0.1,0.1
	l-0.8,1.2c-0.6,1.8-1.7,3.5-3.1,4.8l-0.9,1.3c-0.4,0.9-0.8,1.8-1.3,2.7c-1.7,2.7-0.3,3,2,3c3.5,0,7.9-2.8,10.3,0.2
	c2.2,2.7-0.3,7-0.2,10.6c0.3,12.1-0.3,24.2,0.8,36.2c0.3,3.5-0.9,4.5-4.4,4.5c-11,0-11,0.2-11.1-10.8c-0.1-12.6-0.1-25.2-0.2-37.8
	c0.6-0.4,1.1-1.1,0.3-1.5c-1.1-0.5-1.1,0.7-1.3,1.4c-2.5,4.4-6.2,8.1-7.5,13.1c-0.6,0.8-0.4,1.4,0.5,1.8c1.7,3.6,1.3,7.3,0.8,11
	c-0.1,0.1-0.3,0.2-0.3,0.2c0,0.2,0.1,0.4,0.2,0.7c-0.3,3.7-1.7,7.2-4,10.1l-0.7,0.8l-0.1,0.1l-0.9,1c-1,1.9-2.7,3.3-4.6,4.1
	l-1.4,0.9l0,0l-0.9,0.6c-2.8,1.8-5.9,2.8-9.2,3c-0.6-0.7-1.8-0.8-2.5-0.2c-0.1,0.1-0.3,0.3-0.4,0.5c-8,0-16,1.1-24,0.2
	c-1.8-3.4-0.7-7-1-10.6c-0.2-1.8-0.2-1.8-2-0.6v0.1l-0.9,1.1l-4.3,5.9c-2.6-0.2-2.9,1.4-2.6,3.4c0,0.3-0.1,0.5-0.4,0.6
	c-0.2,0.3-0.5,0.6-0.7,0.9c-1.6,2.9-3.6,5.6-5.9,8c-4.7-0.7-4.2,2.5-4,5.3l-0.5,0.9c-4.7-1.6-1.5,2.5-2.6,3.5l-0.1,0.1l-0.8,1.1
	l-2.1,2.9L54.2,140.1z M116.9,105.8l0.9-0.7l4.1-4.3l0.8-1.3c1.6-3.8,2.2-8,2-12.1c0.1-1,0.1-2-0.9-2.6l-0.2-0.2l0.1-0.2l-0.9-1.5
	c-2-2.7-4.3-5-7-7l-1.5-0.8c-8.7-2.5-15.8-0.2-21.4,6.9L92,83.4l-1.3,3.5c-0.8,0.5-1.1,1.7-0.5,2.5c0.1,0.1,0.2,0.2,0.2,0.3l0.1,3.2
	c-0.8,1.1-0.8,2,0.3,2.9c5.7,11,11.9,14,23.1,11.4c0.6,0.7,1.2,1.7,2.2,1.1S116.8,106.7,116.9,105.8L116.9,105.8z"/>
<path class="st4" d="M197,98.1c-9.2-0.7-8.9-0.7-9.3-9.6c-0.2-4.7,1.3-6,5.8-5.7c4.8,0.4,9.7,0.4,14.5,0c4.3-0.4,5.3,1.7,5.8,5.3
	c1.5,13.7-8,26.5-21.5,28.5c-14,2.4-27.3-6.9-29.9-20.9c-2.6-13,5.9-26.5,19-29.8c4-1.1,8.3-1.2,12.3-0.2c2.2,0.5,2.5,1.5,1.2,3
	c-3.6,4.5-5.1,10.6-12,12.3c-4.4,1.1-6.5,5.6-6.3,10.4s2.6,8.6,7.3,10.3S193,102.5,197,98.1z"/>
<path class="st5" d="M309.9,80.4c-4.3,11.3-8.3,21-11.7,31c-1.5,4.5-3.6,6.2-8.5,6c-9.7-0.4-9.7-0.1-5.8-9.1
	c5.6-13,11.2-25.9,16.6-38.9c1.3-3.2,2.9-4.5,6.5-4.5c11.1,0.1,11.1,0,15.2,9.9c5.2,12.6,10.3,25.2,15.6,37.7
	c1.4,3.4,1.8,4.9-2.8,4.8c-11.5-0.1-11.5,0.1-15.4-10.7C316.6,98.4,313.5,90.1,309.9,80.4z"/>
<path class="st6" d="M263.3,65.1c6.2,0,12.3,0.2,18.5-0.1c3.4-0.1,4.5,1.1,4.1,4.3c-0.2,1.2-0.2,2.3,0,3.5c0.5,3.5-0.9,4.5-4.4,4.5
	c-10.7,0-10.7,0.1-10.7,11.1c0,8.3-0.1,16.6,0.1,25c0,2.9-0.6,4.1-3.8,4.2c-11.8,0.4-11.8,0.5-11.8-11.1c0-8.5-0.1-17,0-25.5
	c0-2.8-0.8-4-3.7-3.7c-1.5,0.1-3,0.1-4.5,0c-8.3-0.1-6.7,1-7.2-7.2c-0.2-3.9,1-5.2,5-5C250.9,65.3,257.1,65.1,263.3,65.1z"/>
<path class="st7" d="M278.7,141.1c0,7.1-0.2,14.2,0.1,21.3c0.1,3.1-0.9,3.9-4,4c-3.2,0-3.8-1.3-3.8-4.2c0.2-9.8,0-19.6,0.2-29.4
	c0-1.7-1.5-4.6,1.6-4.8c2.8-0.2,6.2-1.6,8.3,2.3c3.6,6.9,7.7,13.6,11.6,20.3c0.5,0.9,1.3,1.5,2.2,1.8c0-6.8,0.1-13.7-0.1-20.5
	c-0.1-3.1,0.6-4.3,4-4.3s3.7,1.5,3.7,4.2c-0.1,9.8,0,19.6-0.1,29.4c0,1.7,1.4,4.6-1.7,4.8c-2.7,0.2-5.8,1.3-7.8-2.4
	c-4.1-7.8-8.7-15.3-13.1-22.9L278.7,141.1z"/>
<path class="st0" d="M234.9,91.1c0,7.5-0.1,15,0,22.5c0.1,2.8-0.9,3.7-3.7,3.7c-11.5,0.4-11.5,0.5-11.5-10.8c0-12.5,0.1-25-0.1-37.4
	c0-3,0.9-3.9,4-4c11.2-0.2,11.2-0.3,11.2,11.1C234.9,81.1,234.8,86.1,234.9,91.1z"/>
<path class="st8" d="M82.9,147.2c0-5.3,0.1-10.7,0-16c-0.1-2.4,0.3-3.6,3.2-3.5c7.2,0.2,14.3,0.2,21.5,0c2.7-0.1,3.3,0.9,3.3,3.4
	c0,2.8-1.2,3.3-3.6,3.2c-4.5-0.1-9,0.1-13.5-0.1c-3.6-0.2-3,2.2-3,4.3s-0.8,4.5,2.9,4.2c4.1-0.2,8.3,0.1,12.5-0.1
	c2.8-0.1,2.8,1.4,2.8,3.4s0,3.6-2.8,3.5c-4-0.2-8,0.2-12-0.1c-4.3-0.4-3.6,2.4-3.4,4.8s-1.6,5.7,3.3,5.4s9.7,0,14.5-0.1
	c2.3-0.1,3.2,0.6,3.2,3.1s-0.3,3.7-3.2,3.6c-7.5-0.2-15-0.2-22.5,0c-2.8,0.1-3.3-1.1-3.3-3.6C83,157.6,82.9,152.4,82.9,147.2z"/>
<path class="st9" d="M193.6,146.8c0-5.3,0.2-10.6-0.1-16c-0.2-3.5,2-3,4.2-3.1s4.1,0.1,3.6,3.1c0,0.3,0,0.7,0,1
	c0.2,11.8,1,12.4,12.9,10.9c2-0.2,2.5-1,2.5-2.8c-0.1-2.8,0.2-5.7-0.1-8.5c-0.4-3.3,1.2-3.8,4-3.8s4.1,0.5,4,3.8
	c-0.2,10.3-0.2,20.6,0,30.9c0.1,3.2-1.1,3.9-4,3.9s-4.3-0.5-4-3.8s-0.2-6.7,0.1-10s-1-3.8-4-3.8c-11.5-0.1-11.3-0.2-11.6,11.3
	c0,2.2,2.3,6-2.9,6.3c-3.5,0.2-5.2-0.5-4.8-4.5c0.4-5,0.1-10,0.1-15L193.6,146.8z"/>
<path class="st1" d="M261.4,166.1c-3.2,0.8-4.6-0.8-5-3.7c-0.5-3.6-2.6-4.5-5.9-4.2c-1.8,0.2-3.7,0.2-5.5,0c-3.1-0.3-4.8,0.7-5.7,4
	c-0.9,3.7-4.5,5.1-8,4c-2-0.7-0.9-1.8-0.6-2.7c3.9-11.1,8-22.1,11.7-33.2c1.3-3.9,4.3-2.1,6.6-2.5s3.8,0.6,4.7,3.1
	c3.5,10.3,7.1,20.6,10.9,30.8C266,165.3,265.7,167,261.4,166.1z M242.9,151.6c3.3,0.5,6.6,0.4,9.9-0.1l-4.5-13.9
	c-0.6,0.6-1.2,0.8-1.3,1.2C245.6,143,244.3,147.2,242.9,151.6z"/>
<path class="st1" d="M116.7,128.5c11.1-4.2,11.4,6,15.7,11.1c1.8-1.5,3-3.4,3.7-5.6c2.2-5.9,6.3-7.4,12.4-5.8
	c-3.2,5-6.1,9.9-9.4,14.7c-1.6,2.3-1.7,4.2-0.1,6.6c3.5,5.2,6.7,10.5,10.1,16c-8.7,1.5-8.7,1.5-12.5-5.5c-1.2-2.1-2.5-4.2-3.8-6.6
	c-5.1,5-5.2,16.1-16.7,12c3.5-5.5,6.8-11,10.3-16.3c1.3-1.5,1.3-3.8,0-5.3C123,138.9,119.9,133.6,116.7,128.5z"/>
<path class="st10" d="M52.9,134.7c0,1.6,0,3.2,0,4.9c-6.5-4.8-13.1-9.6-19.5-14.6c-2.6-2.1-4.1-2.3-6.1,0.7
	c-3.5,5.2-7.5,10.2-11.2,15.2c-0.5-0.5-1-1-1.4-1.5c4.3-6.5,8.7-13,12.9-19.6c1.2-1.9,2.3-1.8,3.9-0.6
	C38.6,124.5,45.8,129.6,52.9,134.7z"/>
<path class="st11" d="M14.7,139.4c0.5,0.5,1,1,1.4,1.5c-4.5,7.1-9.4,13.9-14.7,20.4l-1.4-1L14.7,139.4z"/>
<path class="st10" d="M82.4,65.9c1.4,7.4,0.2,14.8,0.5,22.2c0.1,1.9,0.7,4-0.8,5.7C82.1,84.5,81.5,75.2,82.4,65.9z"/>
<path class="st10" d="M175,25c-2.8-2.6,0-5.3,0-7.9c-0.1-4.3-1.2-8.9,0.7-13.1C175.7,11,176.5,18.1,175,25z"/>
<path class="st10" d="M80.8,105.8c1.8-1.2,1.8-1.2,2,0.6c0.3,3.5-0.8,7.2,1,10.6c-2.8,0-1.6-2.1-1.9-3.5
	C81.4,110.9,83.2,108,80.8,105.8z"/>
<path class="st10" d="M61.9,131.2c-0.1-2.9-0.6-6.1,4-5.3C65,127.9,63.6,129.7,61.9,131.2z"/>
<path class="st10" d="M170.3,38.1c2.5,0.4,3.4-1.5,4.5-3.1v5.4C172.7,40.6,171.5,39.3,170.3,38.1z"/>
<path class="st10" d="M58.8,135.6c1.1-1-2.2-5.2,2.6-3.5L58.8,135.6z"/>
<path class="st10" d="M73,116.2c-0.3-2,0-3.6,2.6-3.4L73,116.2z"/>
<path class="st10" d="M128.8,68.6c0.1,1.5,0.2,3.1-2,3.2C127.1,70.6,127.8,69.5,128.8,68.6z"/>
<path class="st10" d="M175.8,2c-1,0-2.1,0.2-2.8-0.7C174,1,175.7-1.9,175.8,2z"/>
<path class="st10" d="M103.8,65c-0.7,1-1.3,0.9-2-0.1C102.6,63.8,103.2,64.2,103.8,65z"/>
<path class="st10" d="M138.8,68.9c0.1-0.8,0.2-1.9,1.3-1.4c0.8,0.3,0.3,1-0.3,1.5L138.8,68.9L138.8,68.9z"/>
<path class="st10" d="M141.8,18.2v2.6c-0.6-0.5-1.7-0.9-1.8-1.3C140.1,18.8,141,18.3,141.8,18.2z"/>
<path class="st10" d="M107.9,116.7c0.5-0.9,1.6-1.2,2.4-0.7c0.2,0.1,0.3,0.2,0.5,0.4L107.9,116.7z"/>
<path class="st10" d="M131.8,83.9c-0.8-0.4-1-1-0.5-1.8L131.8,83.9z"/>
<path class="st10" d="M121.8,69.9c-0.8,0.1-1.5-0.4-1.9-1.1C120.7,68.8,121.4,69.2,121.8,69.9z"/>
<path class="st10" d="M132.5,95.8c-0.1-0.2-0.1-0.4-0.2-0.7c0-0.1,0.2-0.2,0.3-0.2C132.7,95.2,132.7,95.5,132.5,95.8z"/>
<path class="st10" d="M79.9,106.9l0.9-1.1L79.9,106.9z"/>
<path class="st10" d="M124.4,71.8l-1.4-1.1L124.4,71.8z"/>
<path class="st10" d="M127.8,106.7l0.7-0.8C128.3,106.2,128.1,106.4,127.8,106.7z"/>
<path class="st10" d="M126.9,107.9l0.9-1L126.9,107.9z"/>
<path class="st10" d="M120.8,112.8l1.4-0.9L120.8,112.8z"/>
<path class="st10" d="M144,60.2l0.9-1.3L144,60.2z"/>
<path class="st10" d="M119.9,113.5l0.9-0.6L119.9,113.5z"/>
<path class="st10" d="M68.8,113.7l-0.8,1L68.8,113.7z"/>
<path class="st10" d="M67.8,115.3l-1,1.5L67.8,115.3z"/>
<path class="st10" d="M71.9,117.8c0.2-0.3,0.5-0.6,0.7-0.9C72.4,117.2,72.1,117.5,71.9,117.8z"/>
<path class="st10" d="M147.9,54.1l0.8-1.2L147.9,54.1z"/>
<path class="st10" d="M65.8,118.3l-1,1.4L65.8,118.3z"/>
<path class="st10" d="M60.8,125.6l-0.9,1.2L60.8,125.6z"/>
<path class="st10" d="M148.8,52.8c0.1-0.3,0.3-0.6,0.6-0.8L148.8,52.8z"/>
<path class="st10" d="M140.7,48.4c-0.3,0.5-0.6,1-1,1.5C140.1,49.4,140.4,48.9,140.7,48.4z"/>
<path class="st10" d="M141.8,46.6l-0.8,1.3L141.8,46.6z"/>
<path class="st10" d="M152.9,46.2l0.9-1.3L152.9,46.2z"/>
<path class="st10" d="M154,44.5c0.3-0.5,0.7-1,1.1-1.5C154.7,43.5,154.3,44,154,44.5z"/>
<path class="st10" d="M144.9,41.2c-0.1,0.2-0.3,0.4-0.4,0.6C144.4,41.4,144.5,41.2,144.9,41.2z"/>
<path class="st10" d="M145.8,39.7l-0.8,1.2L145.8,39.7z"/>
<path class="st10" d="M163.5,34l1.3,0.9L163.5,34z"/>
<path class="st10" d="M57.9,136.9l0.8-1.1L57.9,136.9z"/>
<path class="st10" d="M147.8,15l-1.4,0.8L147.8,15z"/>
<path class="st10" d="M149.8,13.9l-1.4,0.9L149.8,13.9z"/>
<path class="st10" d="M54.2,140.1l1.6-0.4C55.5,140.6,55,141.1,54.2,140.1z"/>
<path class="st10" d="M164.8,5.9c-0.1,0.5-0.3,0.8-0.9,0.4L164.8,5.9z"/>
<path class="st10" d="M167.8,4.1l-1.3,0.8L167.8,4.1z"/>
<path class="st10" d="M169.8,3.1l-1.4,0.8L169.8,3.1z"/>
<path class="st10" d="M114,107.2l2.9-1.3c-0.1,0.9,0.3,2-0.7,2.5S114.6,107.9,114,107.2z"/>
<path class="st10" d="M90.7,86.9l-0.3,2.8c-0.7-0.7-0.7-1.9,0-2.6C90.5,87.1,90.6,87,90.7,86.9z"/>
<path class="st10" d="M90.5,93c0.1,1,0.2,1.9,0.3,2.9C89.7,95,89.7,94,90.5,93z"/>
<path class="st10" d="M124.7,87.5c-0.7-0.7-1-1.6-0.9-2.6C124.8,85.5,124.8,86.5,124.7,87.5z"/>
<path class="st10" d="M122,100.9l0.8-1.3L122,100.9z"/>
<path class="st10" d="M115.8,75.9l-1.5-0.8L115.8,75.9z"/>
<path class="st10" d="M116.9,105.8c0.3-0.2,0.6-0.5,0.9-0.7C117.5,105.4,117.2,105.6,116.9,105.8z"/>
<path class="st10" d="M92.9,81.9L92,83.4L92.9,81.9z"/>
<path class="st10" d="M123.8,84.4l-0.9-1.5L123.8,84.4z"/>
<path class="st12" d="M242.9,151.6c1.4-4.4,2.7-8.6,4.1-12.8c0.1-0.4,0.7-0.6,1.3-1.2l4.5,13.9C249.5,152,246.2,152,242.9,151.6z"/>
<path class="st13" d="M114.4,91.1c3.7,7-4.6,6.5-6.2,10.3c-2.1-2.2-5.3-2.3-7.7-3.8c-0.7-0.4,0.1-1.1,0.5-1.6c3.4-3.2,3-6.5,0.2-9.8
	c-0.4-0.5-1.2-1.3-0.8-1.5c2.6-1.3,7.2-3.9,7.7-3.3C110.6,84.3,118.3,84.4,114.4,91.1z M109,89.8c1.3-0.1,3,0.2,3-1.8
	s-1.7-1.7-3-1.8s-2.9-0.1-2.8,1.8C106.1,90.2,107.8,89.6,109,89.8z M108.7,95.8c1.3-0.1,3,0.3,3.2-1.5s-1.7-1.7-2.9-1.7
	s-2.9-0.3-2.9,1.7C106.2,96,107.6,95.7,108.7,95.8L108.7,95.8z"/>
</svg>
