<svg width="120" height="31" viewBox="0 0 94 31" fill="none" xmlns="http://www.w3.org/2000/svg" class="position-relative dark-theme-icon-disable _4UREN"><path d="M0 12.251l3.791-.41.274 2.535 1.263-.137-.136-1.264 1.264-.137-.137-1.27 5.022-.545.138 1.27 1.264-.136.273 2.536 1.264-.137L15.503 25.9l-3.792.41-.897-8.32c-.192-1.788-1.537-3.023-3.482-2.813-1.944.21-2.998 1.707-2.805 3.496l.896 8.32-3.791.41L0 12.252zM22.243 29.605l-2.53.246-.124-1.272-1.265.123-.245-2.539-1.265.122-.484-5.012 1.266-.122-.246-2.538 1.266-.123-.122-1.266 2.53-.246-.123-1.272 5.514-.536.124 1.272 2.53-.245.122 1.266 1.265-.122.245 2.538 1.265-.122.484 5.012-1.266.122.245 2.539-1.265.122.123 1.272-2.53.246.122 1.266-5.514.536-.122-1.267zm2.535-2.578c2.27-.22 3.751-2.171 3.537-4.387-.212-2.21-2.039-3.84-4.311-3.62-2.271.22-3.752 2.172-3.54 4.382.215 2.214 2.04 3.846 4.312 3.625h.002zM36.731 20.933l-2.542-.03.016-1.277-1.271-.016.03-2.55-1.271-.015.06-5.035 1.27.015.03-2.55 1.27.016.017-1.272 2.541.03.016-1.278 5.54.067-.016 1.278 2.542.03-.016 1.272 1.271.015-.03 2.55 1.271.016-.06 5.035-1.27-.016-.03 2.55-1.27-.016-.016 1.278L42.27 21l-.016 1.272-5.54-.067.016-1.272zm2.798-2.288c2.283.027 3.965-1.752 3.992-3.976.026-2.22-1.614-4.04-3.895-4.066-2.283-.027-3.965 1.752-3.991 3.972-.027 2.225 1.612 4.044 3.894 4.072v-.002zM49.25 11.803l3.813.066-.044 2.55 1.271.02.021-1.271 1.271.021.021-1.278 5.051.087-.02 1.278 1.27.021-.044 2.55 1.271.021-.194 11.406-3.813-.065.143-8.368c.032-1.8-1.15-3.193-3.105-3.226-1.956-.034-3.187 1.319-3.216 3.118l-.144 8.368-3.812-.065.259-15.234.001.001zM69.847 24.87l-2.542.028-.014-1.277-1.271.014-.028-2.55-1.271.014-.057-5.035 1.271-.014-.028-2.55 1.27-.014-.014-1.272 2.542-.028-.014-1.278 5.08-.057.015 1.278 2.542-.028.014 1.271 1.27-.014.065 5.66-7.918.089c-1.074.013-1.752.574-1.742 1.457.014 1.309 1.489 2.139 3.022 2.122 2.931-.033 2.846-1.795 5.388-1.824l1.27-.014.03 2.646-1.27.015.014 1.277-2.542.028.014 1.273-5.08.056-.015-1.272-.001-.001zm2.417-8.009c1.012-.01 2.869.032 2.858-.98-.01-.851-1.03-1.623-2.886-1.602-1.825.022-2.892.816-2.882 1.667.011 1.012 1.9.927 2.91.915zM84.013 25.451l-2.54-.105.053-1.276-1.27-.053.112-2.744 1.758.072c2.67.11 1.778 1.97 4.937 2.1 1.14.048 2.072-.404 2.11-1.35.035-.815-.636-1.204-1.738-1.378l-2.85-.48c-2.85-.48-4.078-2.327-4.009-4.028l.095-2.32 1.27.053.052-1.27 2.54.105.053-1.276 4.753.196-.052 1.276 2.54.105-.052 1.27 1.27.053-.11 2.68-.979-.039c-3.32-.137-2.525-2.032-5.586-2.159-1.334-.055-2.104.404-2.134 1.122-.034.814.544 1.034 1.775 1.25l2.95.48c2.657.438 3.853 2.289 3.766 4.412l-.098 2.383-1.27-.052-.052 1.276-2.54-.105-.052 1.27-4.754-.196.052-1.27v-.002zM46.83 4.97l.976.822 3.562-4.258-.976-.822L46.83 4.97zM44.813 4.39l1.254.223.385-2.19-1.255-.221-.385 2.189zM48.258 6.495l.435 1.201 3.124-1.14-.436-1.2-3.123 1.14z" fill="#000"></path></svg>